<?xml version="1.0" encoding="UTF-8" standalone="no"?>
<!DOCTYPE svg PUBLIC "-//W3C//DTD SVG 1.1//EN" "http://www.w3.org/Graphics/SVG/1.1/DTD/svg11.dtd">
<svg xmlns="http://www.w3.org/2000/svg" version="1.1" viewbox="0 0 1024 1024" width="1024.0pt" height="1024.0pt">
<path d="M 0.00 0.00 L 1024.00 0.00 L 1024.00 1024.00 L 0.00 1024.00 L 0.00 0.00 Z" fill="#ffffff" />
<path d="M 684.26 43.15 C 688.09 44.07 691.73 46.08 695.40 47.56 C 705.72 51.71 715.74 56.55 725.96 60.97 C 732.77 64.09 739.77 66.53 746.44 69.93 C 744.50 73.88 743.04 77.68 739.89 80.88 C 733.42 87.53 727.13 94.21 721.92 101.93 C 711.28 118.14 703.06 135.04 694.19 152.20 C 690.09 160.74 685.55 169.04 681.65 177.69 C 677.24 185.48 674.08 193.85 669.68 201.64 C 665.56 209.30 662.53 217.64 658.30 225.30 C 654.22 232.66 651.15 240.76 647.19 248.14 C 643.13 255.48 639.88 263.29 636.29 270.87 C 646.62 277.12 657.32 282.99 668.52 287.54 C 682.78 294.09 697.11 299.85 712.38 303.67 C 726.86 307.93 741.49 311.54 756.22 314.85 C 771.54 318.61 787.18 320.62 802.52 324.37 C 804.29 324.91 805.98 325.86 807.64 326.67 C 804.54 336.71 801.32 346.70 798.32 356.77 C 808.14 361.84 817.80 367.22 827.55 372.42 C 829.22 373.29 830.39 374.62 831.72 375.90 C 825.83 375.14 820.78 372.81 815.25 370.83 C 808.88 368.58 802.61 366.28 796.07 364.53 C 792.68 374.17 790.06 384.04 786.84 393.74 C 771.42 443.49 755.89 493.20 739.76 542.73 C 734.87 557.77 729.62 572.69 724.75 587.74 C 720.60 599.86 716.18 611.89 711.94 623.98 C 698.13 661.65 683.39 700.04 664.47 735.46 C 652.30 759.20 637.39 781.72 619.79 801.79 C 613.02 809.94 604.92 816.91 597.51 824.50 C 589.74 831.06 582.03 837.77 573.93 843.93 C 564.19 850.88 554.36 857.76 544.43 864.43 C 533.20 871.21 522.47 878.74 510.99 885.05 C 508.96 886.25 507.00 887.54 505.04 888.84 C 501.29 886.22 497.44 883.77 493.42 881.57 C 484.12 876.45 475.39 870.16 466.37 864.63 C 458.17 859.83 451.15 854.10 443.28 848.75 C 434.86 843.17 427.17 836.04 419.18 829.76 C 413.40 825.19 408.58 819.76 403.17 814.81 C 395.85 808.11 389.54 799.89 382.69 792.52 C 378.20 798.69 375.16 805.60 371.17 812.19 C 361.78 828.20 352.81 844.47 343.60 860.59 C 341.42 864.22 340.60 867.87 337.15 870.57 C 338.12 866.64 339.83 863.07 341.25 859.29 C 350.11 835.11 359.15 811.07 368.04 786.92 C 369.09 783.87 370.97 780.43 370.91 777.18 C 369.73 774.04 367.39 771.25 365.55 768.45 C 355.67 754.06 347.35 737.98 339.49 722.52 C 319.85 682.75 304.37 640.18 289.64 598.37 C 284.99 585.81 281.44 572.94 276.44 560.50 C 267.52 534.22 259.19 507.71 250.75 481.28 C 235.74 433.83 221.03 386.27 206.33 338.72 C 204.92 334.56 203.65 330.38 202.75 326.08 C 215.42 321.70 229.25 320.32 242.32 317.46 C 261.96 313.04 281.58 308.72 300.89 302.94 C 316.03 299.04 330.32 293.02 344.49 286.50 C 357.50 281.36 369.29 273.52 381.89 266.88 C 390.34 262.14 398.34 256.61 406.66 251.65 C 415.13 246.69 423.14 240.70 431.49 235.51 C 440.05 230.43 448.21 224.64 456.37 218.93 C 450.11 215.28 443.48 212.38 437.12 208.90 C 424.12 201.75 410.82 195.20 397.67 188.33 C 395.40 187.15 393.42 185.57 391.54 183.84 C 395.23 184.35 398.80 185.30 402.32 186.49 C 413.71 190.28 425.00 194.20 436.08 198.84 C 444.70 201.96 453.21 205.27 461.23 209.76 C 463.13 210.56 466.25 212.72 468.19 211.22 C 472.77 208.63 476.81 205.11 481.28 202.33 C 489.46 197.28 497.33 191.71 505.04 185.97 C 512.20 191.26 519.46 196.31 527.04 200.97 C 535.32 206.76 543.54 212.56 552.15 217.85 C 562.62 225.18 573.31 232.15 584.21 238.81 C 591.08 243.05 597.42 248.04 604.46 251.92 C 607.10 245.99 609.99 240.28 612.31 234.25 C 615.46 225.96 619.79 218.25 622.97 209.97 C 626.31 201.18 631.04 193.02 634.31 184.23 C 636.56 178.37 639.60 172.84 641.93 166.98 C 644.87 159.08 648.88 151.66 651.80 143.74 C 657.05 132.42 661.48 120.77 666.26 109.24 C 671.36 95.58 676.60 82.92 678.65 68.36 C 680.31 59.26 678.99 51.31 684.26 43.15 Z" fill="#000000" />
<path d="M 713.91 61.19 C 712.43 65.48 710.35 69.40 708.48 73.52 C 680.53 133.72 652.42 194.34 624.59 254.59 C 623.82 256.32 622.45 257.39 621.06 258.60 C 622.34 252.75 625.23 248.22 627.67 242.68 C 634.44 227.86 641.62 213.24 648.43 198.44 C 667.47 157.46 686.49 116.46 705.46 75.45 C 707.41 71.35 709.07 67.08 711.25 63.10 C 711.79 61.97 712.88 61.75 713.91 61.19 Z" fill="#ffffff" />
<path d="M 505.80 350.80 C 507.92 355.03 509.48 359.46 511.14 363.88 C 518.19 382.00 525.51 399.98 533.26 417.80 C 535.89 423.81 538.93 429.57 541.10 435.78 C 537.75 437.90 534.30 439.85 530.95 441.96 C 522.03 447.69 514.22 454.56 505.19 460.11 C 496.05 454.36 487.98 446.96 478.69 441.35 C 475.82 439.65 472.96 437.93 470.16 436.12 C 477.16 420.62 484.11 405.11 490.35 389.28 C 495.85 376.60 500.35 363.49 505.80 350.80 Z" fill="#ffffff" />
<path d="M 393.66 406.23 C 406.57 409.46 418.91 415.38 431.55 419.52 C 443.73 424.17 455.42 430.36 466.69 436.89 C 464.55 442.16 461.63 446.99 459.07 452.05 C 457.69 454.78 456.04 457.35 454.27 459.84 C 451.21 456.10 448.65 452.05 445.92 448.07 C 442.27 442.72 437.94 438.21 433.46 433.54 C 422.47 421.98 407.88 413.23 393.66 406.23 Z" fill="#ffffff" />
<path d="M 617.24 406.05 C 613.36 408.31 609.24 410.10 605.35 412.34 C 600.08 415.28 595.14 418.70 590.24 422.21 C 583.28 426.86 577.27 433.45 571.55 439.53 C 565.80 445.64 561.99 452.85 556.74 459.32 C 551.78 452.23 547.98 444.23 544.31 436.41 C 556.36 429.59 569.10 422.66 582.29 418.30 C 593.87 414.19 605.30 408.96 617.24 406.05 Z" fill="#ffffff" />
<path d="M 469.07 438.17 C 476.01 442.02 482.50 446.43 488.88 451.13 C 494.05 455.02 499.54 458.20 504.24 462.70 C 499.96 466.36 495.34 469.52 490.70 472.70 C 483.63 477.83 476.48 482.77 468.83 487.01 C 464.85 478.76 460.19 470.92 455.88 462.86 C 457.64 459.35 459.53 455.94 461.57 452.58 C 464.40 447.93 466.48 442.94 469.07 438.17 Z" fill="#ffffff" />
<path d="M 542.13 437.55 C 543.75 440.41 545.29 443.32 546.74 446.27 C 549.36 451.63 552.66 456.62 555.32 461.97 C 550.87 470.19 546.17 478.24 541.97 486.60 C 536.41 483.82 531.59 480.05 526.47 476.58 C 519.66 472.20 513.04 467.42 506.92 462.12 C 510.04 459.47 513.23 456.91 516.65 454.66 C 525.32 448.99 533.00 442.55 542.13 437.55 Z" fill="#ffffff" />
<path d="M 505.95 464.72 C 517.62 472.71 528.82 481.58 540.95 488.87 C 533.62 504.79 526.61 520.86 520.14 537.16 C 514.86 549.38 510.50 561.99 505.30 574.24 C 494.09 545.62 482.78 517.09 469.91 489.17 C 482.84 482.10 493.54 472.56 505.95 464.72 Z" fill="#ffffff" />
<path d="M 556.74 464.70 C 561.18 470.76 565.38 477.05 570.04 482.97 C 573.62 487.53 578.19 491.57 582.36 495.64 C 591.73 504.99 604.72 511.49 615.99 518.03 C 607.82 516.19 599.99 512.60 592.00 510.02 C 575.34 504.43 559.35 496.67 544.04 488.11 C 547.61 480.04 551.67 471.93 556.74 464.70 Z" fill="#ffffff" />
<path d="M 454.24 465.98 C 459.24 472.74 462.68 480.79 466.49 488.27 C 461.60 491.85 456.09 493.94 450.76 496.74 C 440.00 502.09 428.96 506.99 417.49 510.62 C 410.22 513.00 403.27 516.05 395.95 517.94 C 402.84 513.81 410.00 510.17 416.69 505.68 C 424.87 500.73 430.75 494.16 437.55 487.55 C 444.21 480.98 448.36 472.95 454.24 465.98 Z" fill="#ffffff" />
</svg>